<svg version="1.1" id="Layer_1" xmlns:x="ns_extend;" xmlns:i="ns_ai;" xmlns:graph="ns_graphs;" xmlns="http://www.w3.org/2000/svg" xmlns:xlink="http://www.w3.org/1999/xlink" x="0px" y="0px" viewBox="0 0 211.6 66" style="enable-background:new 0 0 211.6 66;" xml:space="preserve">
 <style type="text/css">
  .st0{fill:#2932E1;}
	.st1{fill:#DF0000;}
 </style>
 <metadata>
  <sfw xmlns="ns_sfw;">
   <slices>
   </slices>
   <sliceSourceBounds bottomLeftOrigin="true" height="66" width="211.6" x="22.8" y="-261.5">
   </sliceSourceBounds>
  </sfw>
 </metadata>
 <g>
  <path class="st0" d="M83,35c4.9-0.7,6.6-5.6,6.1-10.4c-0.4-4.2-3.3-9-7.9-8.6c-4.5,0.4-7.2,4.8-7.2,10C74,30.9,77.4,35.8,83,35">
  </path>
  <path class="st0" d="M96.6,19.6c4.8-0.5,6.5-5.4,6.4-10.2C102.9,4,100-0.2,95.3,0c-4.1,0.2-7.4,4.3-7.6,9.8
		C87.6,15.6,91.3,20.1,96.6,19.6">
  </path>
  <path class="st0" d="M127.3,35c-4.9-0.7-6.6-5.6-6.1-10.4c0.4-4.2,3.3-9,7.9-8.6c4.5,0.4,7.2,4.8,7.2,10
		C136.4,30.9,133,35.8,127.3,35">
  </path>
  <path class="st0" d="M113.8,19.6c-4.8-0.5-6.5-5.4-6.4-10.2c0.1-5.3,3.1-9.6,7.7-9.4c4.1,0.2,7.4,4.3,7.6,9.8
		C122.8,15.6,119.1,20.1,113.8,19.6">
  </path>
  <path class="st0" d="M90.5,51.5c0,2.1,1.5,4,3.8,4h3.9l0-7.9h-4C91.9,47.5,90.5,49.4,90.5,51.5">
  </path>
  <path class="st0" d="M124.1,40.5c-1.5-1.5-5.8-4.3-9.1-9.7c-2.2-3.6-5.9-6-9.9-5.9c-3.9-0.1-7.7,2.3-9.9,5.9
		c-3.3,5.4-7.5,8.3-9.1,9.7c-1.9,1.8-10.1,6.2-8.3,15.7c1.8,9.4,10.6,9.8,10.6,9.8s4.2,0.4,11.3-1.3c1.9-0.4,3.8-0.6,5.3-0.6
		c1.6,0,3.4,0.2,5.3,0.6c7.1,1.7,11.3,1.3,11.3,1.3s8.9-0.4,10.6-9.8C134.2,46.7,126.1,42.3,124.1,40.5 M102.8,59.9h-1.6h-3h-3.6
		c-5.5,0-8.7-3.6-8.7-8.6c0-4.6,3.4-8.3,8.4-8.3h3.9l0-7.2h4.6V59.9z M121.5,59.9H112c-3.9,0-5.6-2.1-5.6-5.1V42.9h4.5v10.4
		c0,1.6,0.7,2.1,1.5,2.1h4.6l0-12.6h4.5V59.9z">
  </path>
  <path class="st1" d="M62.3,64h7.3V38.9h-7.3V64z M62.3,36.1h7.3v-6.4h-7.3V36.1z">
  </path>
  <path class="st1" d="M51.7,59.1h-9.7c-1.3,0-2.4-1-2.4-2.7c0-1.5,1-2.7,2.5-2.7h9.5V59.1z M50.4,38.9H34.8v5.3h13.7
		c2,0,3.3,1.1,3.3,2.8v1.9H40.3c-4.4,0-7.5,2.7-7.5,7.6c0,5.3,3.1,7.6,7.5,7.6h18.5v-18C58.8,41.8,55.4,38.9,50.4,38.9">
  </path>
  <path class="st1" d="M17.6,43.5h-10v-7.2h9.9c2.8,0,4.5,1.3,4.5,3.4C22,42.5,20.4,43.5,17.6,43.5 M18,57.9L18,57.9H7.7v-7.5H18
		c2.7,0,4.6,1.4,4.6,3.8C22.6,56.6,20.7,57.9,18,57.9 M31.1,55.2c0-4.1-2-7.2-5.3-8.2c2.9-1.2,4.1-3.7,4.1-7.7
		c0-5.2-4.3-9.8-13.2-9.8H0v34.8h18.5C26.7,64.3,31.1,61.1,31.1,55.2">
  </path>
  <path class="st1" d="M166.2,48.9H147v-4.9h19.1V48.9z M166.2,57.5c0,1-0.5,1.6-1.4,1.6H147v-5.2h19.2V57.5z M173.9,35.6v-5.2h-34.7
		v5.3h13.2l-1.1,3.5h-10.5v25.1h26.9c2.8,0,4.6-1.6,4.6-4.5V39.1h-13.9l1.1-3.5H173.9z">
  </path>
  <path class="st1" d="M208.5,35.9h-5.2v1.2h-10.8v-1.2h-5.2v1.2h-3.1v4.3h3.1v6.8h0.6h4.7h10.8h2.5h0.3c1.4,0,2.5-1.1,2.5-2.5v-4.3
		h3.1v-4.3h-3.1V35.9z M203.3,43c0,0.5-0.4,0.9-0.9,0.9h-9.8v-2.5h10.8V43z">
  </path>
  <path class="st1" d="M199,30.4v-1.8h-6.2v1.8H183h-5.2v4.3v21.2c0,4.8-0.8,7.2-1.3,8.3h5.6c0.6-2,1-4.7,1-8.3V34.7h28.6v-4.3H199z">
  </path>
  <path class="st1" d="M202.8,59c3.5-1.9,7.6-4.2,7.6-4.2V50h-25.2v4.7c0,0,4.1,2.3,7.6,4.2c-1.6,0.6-2.8,1-3.5,1h-5.3v4.3h5.8
		c0.6,0,2.3,0,8-2.7h0h0c5.7,2.7,7.4,2.7,8,2.7h5.8v-4.3h-5.3C205.6,59.9,204.4,59.6,202.8,59 M197.8,56.8c0,0-4.3-1.9-6-2.9h12
		C202.1,54.8,197.8,56.8,197.8,56.8">
  </path>
 </g>
</svg>