<?xml version="1.0" standalone="no"?>
<!DOCTYPE svg PUBLIC "-//W3C//DTD SVG 20010904//EN"
 "http://www.w3.org/TR/2001/REC-SVG-20010904/DTD/svg10.dtd">
<svg version="1.0" xmlns="http://www.w3.org/2000/svg"
 width="512.000000pt" height="512.000000pt" viewBox="0 0 512.000000 512.000000"
 preserveAspectRatio="xMidYMid meet">
<metadata>
Created by potrace 1.14, written by Peter Selinger 2001-2017
</metadata>
<g transform="translate(0.000000,512.000000) scale(0.100000,-0.100000)"
fill="#000000" stroke="none">
<path d="M2267 5005 c-675 -85 -1269 -427 -1672 -960 -331 -438 -495 -931
-495 -1485 0 -340 48 -602 162 -894 288 -734 896 -1286 1645 -1491 243 -67
346 -80 653 -80 243 0 290 3 403 23 521 94 977 330 1338 693 296 298 517 671
628 1059 126 443 123 975 -10 1405 -201 653 -666 1198 -1273 1494 -238 116
-461 187 -716 226 -144 23 -520 29 -663 10z m473 -350 c173 -8 407 -57 575
-120 246 -92 513 -267 722 -473 404 -398 607 -857 630 -1422 20 -506 -126
-973 -425 -1360 -139 -180 -390 -407 -583 -527 -91 -57 -270 -145 -357 -177
-237 -85 -455 -120 -737 -120 -238 0 -357 14 -570 69 -347 90 -658 274 -937
558 -206 209 -381 475 -473 722 -66 176 -114 414 -123 618 -20 400 42 730 193
1042 167 344 439 652 765 868 236 156 520 264 805 308 89 13 308 27 370 22 22
-1 87 -5 145 -8z"/>
<path d="M1727 3135 c-123 -47 -212 -194 -224 -370 -17 -260 155 -478 344
-435 143 32 243 190 245 391 0 47 -5 110 -12 140 -27 113 -102 224 -181 264
-44 23 -126 28 -172 10z"/>
<path d="M3270 3141 c-141 -46 -240 -214 -240 -406 0 -166 82 -329 194 -388
55 -28 146 -28 201 0 45 24 101 80 133 133 79 133 84 349 11 491 -28 56 -95
127 -142 150 -44 23 -120 32 -157 20z"/>
</g>
</svg>
